<svg width="24" height="22" viewBox="0 0 24 22" fill="none" xmlns="http://www.w3.org/2000/svg">
<path d="M2.61039 15.2921C2.76726 15.4526 2.98001 15.5427 3.20185 15.5427C3.42369 15.5427 3.63644 15.4526 3.7933 15.2921L4.32579 14.7472V21.1443C4.32579 21.3712 4.41392 21.5889 4.57078 21.7494C4.72765 21.9098 4.9404 22 5.16224 22H18.8379C19.0598 22 19.2725 21.9098 19.4294 21.7494C19.5862 21.5889 19.6744 21.3712 19.6744 21.1443V14.7472L20.207 15.2921C20.3639 15.4525 20.5766 15.5427 20.7984 15.5427C21.0202 15.5427 21.2329 15.4525 21.3898 15.2921L23.7551 12.8719C23.9119 12.7115 24 12.4939 24 12.2669C24 12.04 23.9119 11.8224 23.7551 11.6619L19.6369 7.44868V1.98057C19.6369 1.75362 19.5488 1.53596 19.3919 1.37548C19.235 1.215 19.0223 1.12484 18.8004 1.12484H16.2305C16.0087 1.12484 15.7959 1.215 15.6391 1.37548C15.4822 1.53596 15.3941 1.75362 15.3941 1.98057V3.10859L12.5908 0.240705C12.4309 0.0861258 12.2193 0 11.9993 0C11.7794 0 11.5677 0.0861258 11.4079 0.240705L0.244902 11.6619C0.0880914 11.8224 0 12.04 0 12.2669C0 12.4939 0.0880914 12.7115 0.244902 12.8719L2.61039 15.2921ZM17.067 2.8363H17.964V5.73739L17.067 4.81988V2.8363ZM11.9994 2.05588L21.9818 12.2669L20.7991 13.4769L19.4301 12.0771C19.3132 11.9574 19.1641 11.8759 19.0018 11.8429C18.8395 11.8098 18.6713 11.8268 18.5185 11.8916C18.3656 11.9564 18.235 12.0661 18.1431 12.2068C18.0511 12.3476 18.0021 12.513 18.0021 12.6823V20.2885H5.9987V12.682C5.9987 12.5127 5.94964 12.3473 5.85774 12.2066C5.76584 12.0659 5.63522 11.9562 5.48239 11.8914C5.32957 11.8266 5.1614 11.8097 4.99915 11.8427C4.8369 11.8757 4.68786 11.9572 4.57087 12.0768L3.20193 13.4766L2.01902 12.2666L11.9994 2.05588Z" fill="white"/>
<path d="M10.0406 17.9887H13.9597C14.1815 17.9887 14.3943 17.8985 14.5511 17.738C14.708 17.5776 14.7961 17.3599 14.7961 17.133V13.1227C14.7961 12.8957 14.708 12.6781 14.5511 12.5176C14.3943 12.3571 14.1815 12.2669 13.9597 12.2669H10.0406C9.81871 12.2669 9.60596 12.3571 9.44909 12.5176C9.29223 12.6781 9.2041 12.8957 9.2041 13.1227V17.133C9.2041 17.3599 9.29223 17.5776 9.44909 17.738C9.60596 17.8985 9.81871 17.9887 10.0406 17.9887ZM10.877 13.9784H13.1232V16.2772H10.877V13.9784Z" fill="white"/>
</svg>
