<svg width="22" height="22" viewBox="0 0 22 22" fill="none" xmlns="http://www.w3.org/2000/svg">
<path d="M2 18.9688V3M3.03618 20C3.03618 20 12.7798 20 19.023 20M20 18.9688C20 13.5858 20 3 20 3M19.023 2C13.6442 2 3.03618 2 3.03618 2" stroke="white" stroke-miterlimit="10" stroke-linejoin="round"/>
<path d="M21 19H19V21H21V19Z" stroke="white" stroke-miterlimit="10" stroke-linecap="round" stroke-linejoin="round"/>
<path d="M3 19H0.999995V21H3V19Z" stroke="white" stroke-miterlimit="10" stroke-linecap="round" stroke-linejoin="round"/>
<path d="M21 1H19V3H21V1Z" stroke="white" stroke-miterlimit="10" stroke-linecap="round" stroke-linejoin="round"/>
<path d="M3 1H0.999995V3H3V1Z" stroke="white" stroke-miterlimit="10" stroke-linecap="round" stroke-linejoin="round"/>
<path d="M9.99999 17H5L7.49999 12.5L9.99999 17Z" stroke="white" stroke-miterlimit="10" stroke-linecap="round" stroke-linejoin="round"/>
<path d="M11.5 13H17.5" stroke="white" stroke-miterlimit="10" stroke-linejoin="round"/>
<path d="M11.5 15H17.5" stroke="white" stroke-miterlimit="10" stroke-linejoin="round"/>
<path d="M11.5 17H17.5" stroke="white" stroke-miterlimit="10" stroke-linejoin="round"/>
<path d="M17 5H13V9H17V5Z" stroke="white" stroke-miterlimit="10" stroke-linecap="round" stroke-linejoin="round"/>
<path d="M4.50001 5H10.5" stroke="white" stroke-miterlimit="10" stroke-linejoin="round"/>
<path d="M4.50001 7H10.5" stroke="white" stroke-miterlimit="10" stroke-linejoin="round"/>
<path d="M4.50001 9H10.5" stroke="white" stroke-miterlimit="10" stroke-linejoin="round"/>
</svg>
