<svg width="24" height="21" viewBox="0 0 24 21" fill="none" xmlns="http://www.w3.org/2000/svg">
<path d="M2.50049 5.63805L1.6 4.63805C0.8 3.83805 0.8 2.53805 1.6 1.63805C2.4 0.738049 3.60049 0.838052 4.50049 1.63805L5.50049 2.63805L2.50049 5.63805Z" fill="#373539"/>
<path d="M18.5005 5.63805L19.5005 4.63805C20.3005 3.83805 20.3005 2.53805 19.5005 1.63805C18.7005 0.838052 17.4005 0.838052 16.5005 1.63805L15.5005 2.63805L18.5005 5.63805Z" fill="#373539"/>
<path d="M2.50049 5.63805L1.6 4.63805C0.8 3.83805 0.8 2.53805 1.6 1.63805C2.4 0.738049 3.60049 0.838052 4.50049 1.63805L5.50049 2.63805L2.50049 5.63805Z" stroke="#373539" stroke-miterlimit="10" stroke-linecap="round" stroke-linejoin="round"/>
<path d="M18.5005 5.63805L19.5005 4.63805C20.3005 3.83805 20.3005 2.53805 19.5005 1.63805C18.7005 0.838052 17.4005 0.838052 16.5005 1.63805L15.5005 2.63805L18.5005 5.63805Z" stroke="#373539" stroke-miterlimit="10" stroke-linecap="round" stroke-linejoin="round"/>
<path d="M2.00049 20.1381V9.94822C2.00049 5.29849 5.84571 1.13806 10.5005 1.13806C15.1552 1.13806 19.0005 5.39742 19.0005 9.94822V20.1381" stroke="#373539" stroke-miterlimit="10" stroke-linecap="round" stroke-linejoin="round"/>
<path d="M9.50049 7.13806H11.5005M10.5005 7.13806V8.63806" stroke="#373539" stroke-miterlimit="10" stroke-linecap="round" stroke-linejoin="round"/>
<path d="M8.00049 6.13806C8.00049 5.56663 7.42906 5.13806 7.00049 5.13806C6.57192 5.13806 6.00049 5.56663 6.00049 6.13806H8.00049Z" fill="#373539"/>
<path d="M15.0005 6.13805C15.0005 5.56663 14.4291 5.13806 14.0005 5.13806C13.5719 5.13806 13.0005 5.56663 13.0005 6.13806L15.0005 6.13805Z" fill="#373539"/>
<path d="M8.00049 6.13806C8.00049 5.56663 7.42906 5.13806 7.00049 5.13806C6.57192 5.13806 6.00049 5.56663 6.00049 6.13806H8.00049Z" stroke="#373539" stroke-width="0.5" stroke-miterlimit="10" stroke-linecap="round" stroke-linejoin="round"/>
<path d="M15.0005 6.13805C15.0005 5.56663 14.4291 5.13806 14.0005 5.13806C13.5719 5.13806 13.0005 5.56663 13.0005 6.13806L15.0005 6.13805Z" stroke="#373539" stroke-width="0.5" stroke-miterlimit="10" stroke-linecap="round" stroke-linejoin="round"/>
<path d="M12 10.1382H13C13.5 10.1382 14 10.5593 14 11.1908C14 11.7172 13.6 12.1382 13 12.1382H12.8M12.7316 12.1381H13.0474C13.5737 12.1381 14.1 12.5591 14.1 13.0854C14.1 13.6117 13.679 14.1381 13.0474 14.1381H12.1" stroke="#373539" stroke-miterlimit="10" stroke-linecap="round" stroke-linejoin="round"/>
<path d="M19.4999 8.93822C19.0999 8.63822 18.4999 8.73822 18.1999 9.23822C17.9999 9.53822 17.8999 9.83822 17.8999 9.83822C17.8999 9.83822 17.7999 9.53822 17.5999 9.23822C17.2999 8.73822 16.6999 8.63822 16.2999 8.93822C15.8999 9.23822 15.6999 9.93822 15.9999 10.4382C16.2999 10.9382 17.8999 12.1382 17.8999 12.1382C18.0999 12.0382 19.4999 10.9382 19.7999 10.4382C20.0999 9.83822 19.8999 9.23822 19.4999 8.93822Z" fill="#373539" stroke="#373539" stroke-miterlimit="10" stroke-linecap="round" stroke-linejoin="round"/>
<path d="M23.2831 5.73825C23.0874 5.56014 22.794 5.61951 22.6472 5.91635C22.5494 6.09446 22.5005 6.27257 22.5005 6.27257C22.5005 6.27257 22.4516 6.09446 22.3537 5.91635C22.207 5.61951 21.9135 5.56014 21.7179 5.73825C21.5222 5.91636 21.4244 6.33194 21.5711 6.62879C21.7179 6.92563 22.5005 7.63806 22.5005 7.63806C22.5983 7.57869 23.2831 6.92563 23.4298 6.62879C23.5766 6.27257 23.4787 5.91636 23.2831 5.73825Z" fill="#373539" stroke="#373539" stroke-width="0.5" stroke-miterlimit="10" stroke-linecap="round" stroke-linejoin="round"/>
</svg>
